<svg width="251" height="150" viewBox="0 0 251 150" fill="none" xmlns="http://www.w3.org/2000/svg">
<g filter="url(#filter0_d_2_17)">
<path d="M6.95572 67.0728L124.506 1.71296L244.008 67.0732L124.506 140.237L6.95572 67.0728Z" stroke="white" stroke-width="3" shape-rendering="crispEdges"/>
</g>
<path d="M50.6406 60.1562H41.8438V78.9531C41.8438 79.8177 42.1927 80.25 42.8906 80.25H44.7656V81.7031H34V80.25H35.7812C36.5417 80.25 36.9219 79.8177 36.9219 78.9531V61.5312C36.9219 60.5417 36.4167 60.0469 35.4062 60.0469H34V58.5938H58.4844V60.0469H57.0781C56.0677 60.0469 55.5625 60.474 55.5625 61.3281V78.7812C55.5625 79.7604 56.0104 80.25 56.9062 80.25H58.4844V81.7031H47.7188V80.25H49.4062C50.2292 80.25 50.6406 79.8177 50.6406 78.9531V60.1562Z" fill="white"/>
<path d="M73.3906 58C75.5677 58 77.5729 58.526 79.4062 59.5781C81.25 60.6302 82.6823 62.0677 83.7031 63.8906C84.7344 65.7031 85.25 67.75 85.25 70.0312C85.25 73.5 84.1146 76.3906 81.8438 78.7031C79.5833 81.0156 76.776 82.1719 73.4219 82.1719C71.1927 82.1719 69.1927 81.6458 67.4219 80.5938C65.6615 79.5417 64.2708 78.125 63.25 76.3438C62.2292 74.5521 61.7188 72.474 61.7188 70.1094C61.7188 66.599 62.8385 63.7031 65.0781 61.4219C67.3177 59.1406 70.0885 58 73.3906 58ZM73.4844 59.5C72.2448 59.5 71.1667 59.8438 70.25 60.5312C69.3438 61.2083 68.6198 62.3073 68.0781 63.8281C67.5469 65.349 67.2812 67.4323 67.2812 70.0781C67.2812 72.8594 67.526 74.9688 68.0156 76.4062C68.5156 77.8333 69.2396 78.8906 70.1875 79.5781C71.1354 80.2656 72.2396 80.6094 73.5 80.6094C75.3646 80.6094 76.8542 79.8125 77.9688 78.2188C79.0833 76.6146 79.6406 73.8333 79.6406 69.875C79.6406 67.1042 79.401 65.026 78.9219 63.6406C78.4427 62.2448 77.7292 61.2083 76.7812 60.5312C75.8333 59.8438 74.7344 59.5 73.4844 59.5Z" fill="white"/>
<path d="M88.4062 58.5938H108.609L109.125 67.375H107.703C107.37 65.5 106.938 64.0365 106.406 62.9844C105.875 61.9323 105.266 61.1875 104.578 60.75C103.901 60.3021 103.156 60.0781 102.344 60.0781C101.875 60.0781 101.531 60.1771 101.312 60.375C101.094 60.5625 100.984 60.8385 100.984 61.2031V79.0781C100.984 79.4219 101.089 79.7031 101.297 79.9219C101.516 80.1406 101.776 80.25 102.078 80.25H104.703V81.7031H92.3438V80.25H94.8438C95.2188 80.25 95.5156 80.1458 95.7344 79.9375C95.9531 79.7188 96.0625 79.4323 96.0625 79.0781V61.2969C96.0625 60.8802 95.9479 60.5729 95.7188 60.375C95.5 60.1771 95.151 60.0781 94.6719 60.0781C92.0156 60.0781 90.2188 62.5104 89.2812 67.375H87.9062L88.4062 58.5938Z" fill="white"/>
<path d="M123.172 58C125.349 58 127.354 58.526 129.188 59.5781C131.031 60.6302 132.464 62.0677 133.484 63.8906C134.516 65.7031 135.031 67.75 135.031 70.0312C135.031 73.5 133.896 76.3906 131.625 78.7031C129.365 81.0156 126.557 82.1719 123.203 82.1719C120.974 82.1719 118.974 81.6458 117.203 80.5938C115.443 79.5417 114.052 78.125 113.031 76.3438C112.01 74.5521 111.5 72.474 111.5 70.1094C111.5 66.599 112.62 63.7031 114.859 61.4219C117.099 59.1406 119.87 58 123.172 58ZM123.266 59.5C122.026 59.5 120.948 59.8438 120.031 60.5312C119.125 61.2083 118.401 62.3073 117.859 63.8281C117.328 65.349 117.062 67.4323 117.062 70.0781C117.062 72.8594 117.307 74.9688 117.797 76.4062C118.297 77.8333 119.021 78.8906 119.969 79.5781C120.917 80.2656 122.021 80.6094 123.281 80.6094C125.146 80.6094 126.635 79.8125 127.75 78.2188C128.865 76.6146 129.422 73.8333 129.422 69.875C129.422 67.1042 129.182 65.026 128.703 63.6406C128.224 62.2448 127.51 61.2083 126.562 60.5312C125.615 59.8438 124.516 59.5 123.266 59.5Z" fill="white"/>
<path d="M141.156 60.0469V58.5938H162.312V60.0469H160.234C159.359 60.0469 158.922 60.4062 158.922 61.125V79.0156C158.922 79.8385 159.438 80.25 160.469 80.25H162.312V81.7031H150.469V80.25H152.281C153.427 80.25 154 79.8385 154 79.0156V60.0469H150.094C149.083 60.0469 148.385 60.1979 148 60.5C147.625 60.7917 147.354 61.224 147.188 61.7969C147.031 62.3594 146.839 64.474 146.609 68.1406C146.391 71.6406 146.083 74.375 145.688 76.3438C145.292 78.3125 144.615 79.776 143.656 80.7344C142.708 81.6927 141.578 82.1719 140.266 82.1719C139.141 82.1719 138.281 81.849 137.688 81.2031C137.094 80.5469 136.797 79.7865 136.797 78.9219C136.797 78.099 137.036 77.4219 137.516 76.8906C138.005 76.349 138.63 76.0781 139.391 76.0781C139.839 76.0781 140.312 76.224 140.812 76.5156C141.323 76.8073 141.599 77.375 141.641 78.2188C141.682 78.875 141.922 79.2031 142.359 79.2031C143.203 79.2031 143.849 77.9219 144.297 75.3594C144.745 72.7865 144.969 69.849 144.969 66.5469C144.969 63.7448 144.75 61.9635 144.312 61.2031C143.875 60.4323 143.099 60.0469 141.984 60.0469H141.156Z" fill="white"/>
<path d="M173.859 69.3125H176.875C177.656 69.3125 178.307 69.1667 178.828 68.875C179.349 68.5729 179.693 68.1927 179.859 67.7344C180.036 67.2656 180.161 66.4688 180.234 65.3438C180.339 63.4583 180.495 62.0781 180.703 61.2031C180.911 60.3281 181.333 59.6198 181.969 59.0781C182.615 58.526 183.484 58.25 184.578 58.25C185.807 58.25 186.755 58.6146 187.422 59.3438C188.089 60.0625 188.422 60.8594 188.422 61.7344C188.422 62.526 188.177 63.1979 187.688 63.75C187.208 64.3021 186.641 64.5781 185.984 64.5781C185.328 64.5781 184.781 64.375 184.344 63.9688C183.917 63.5521 183.703 63.0312 183.703 62.4062C183.703 62.0938 183.792 61.7708 183.969 61.4375C184.094 61.2083 184.156 61.0365 184.156 60.9219C184.156 60.4115 183.953 60.1562 183.547 60.1562C183.13 60.1562 182.776 60.401 182.484 60.8906C182.193 61.3802 181.974 62.7812 181.828 65.0938C181.714 67 181.453 68.2552 181.047 68.8594C180.641 69.4531 179.984 69.8906 179.078 70.1719C181.172 70.6823 182.526 71.401 183.141 72.3281C183.755 73.2552 184.286 74.6562 184.734 76.5312C185.161 78.3229 185.635 79.2188 186.156 79.2188C186.844 79.2188 187.245 78.3073 187.359 76.4844H188.734C188.536 80.1198 187.021 81.9375 184.188 81.9375C183.375 81.9375 182.667 81.7865 182.062 81.4844C181.469 81.1719 180.984 80.6094 180.609 79.7969C180.245 78.974 179.896 77.3125 179.562 74.8125C179.385 73.4479 178.958 72.4219 178.281 71.7344C177.615 71.0469 176.792 70.7031 175.812 70.7031H173.859V79.125C173.859 79.875 174.354 80.25 175.344 80.25H176.984V81.7031H165.688V80.25H167.5C168.094 80.25 168.479 80.1094 168.656 79.8281C168.844 79.5469 168.938 79.3125 168.938 79.125V61.2344C168.938 60.4427 168.458 60.0469 167.5 60.0469H165.688V58.5938H176.984V60.0469H175.141C174.87 60.0469 174.589 60.1406 174.297 60.3281C174.005 60.5156 173.859 60.8177 173.859 61.2344V69.3125Z" fill="white"/>
<path d="M199.484 75.7344L199.859 74.7969L208.516 62.0781V61.5312C208.516 60.9062 208.38 60.5052 208.109 60.3281C207.849 60.1406 207.474 60.0469 206.984 60.0469H205.594V58.5938H216.375V60.0469H214.953C213.953 60.0469 213.453 60.474 213.453 61.3281V78.7812C213.453 79.7604 213.896 80.25 214.781 80.25H216.375V81.7031H205.594V80.25H207.281C208.104 80.25 208.516 79.8177 208.516 78.9531V64.8281L208.203 65.6719L199.484 78.2969V78.9531C199.484 79.8177 199.833 80.25 200.531 80.25H202.406V81.7031H191.641V80.25H193.422C194.182 80.25 194.562 79.8177 194.562 78.9531V61.5312C194.562 60.5417 194.057 60.0469 193.047 60.0469H191.641V58.5938H202.406V60.0469H200.797C199.922 60.0469 199.484 60.4115 199.484 61.1406V75.7344Z" fill="white"/>
<path d="M90.0859 95.1689C90.7513 95.1735 91.2412 95.3216 91.5557 95.6133C91.8747 95.9049 92.0342 96.249 92.0342 96.6455C92.0342 97.1878 91.7721 97.7005 91.248 98.1836C90.724 98.6621 90.0335 98.9014 89.1768 98.9014C88.32 98.9014 87.6637 98.6484 87.208 98.1426C86.7523 97.6367 86.5244 97.0693 86.5244 96.4404C86.5244 95.4469 86.9072 94.4762 87.6729 93.5283C88.4385 92.5804 89.3887 92.1064 90.5234 92.1064C91.1113 92.1064 91.5488 92.2409 91.8359 92.5098C92.123 92.7741 92.2666 93.0544 92.2666 93.3506C92.2666 93.7607 92.0524 94.1322 91.624 94.4648C91.1956 94.793 90.6829 95.0277 90.0859 95.1689ZM87.8438 95.5107C89.0514 95.1781 89.8923 94.8613 90.3662 94.5605C90.8402 94.2598 91.0771 93.8747 91.0771 93.4053C91.0771 92.8903 90.8083 92.6328 90.2705 92.6328C89.8193 92.6328 89.3682 92.8698 88.917 93.3438C88.4658 93.8132 88.1081 94.5355 87.8438 95.5107ZM87.7822 95.9893C87.7594 96.1852 87.748 96.3333 87.748 96.4336C87.748 97.0124 87.8483 97.4886 88.0488 97.8623C88.2539 98.236 88.5661 98.4229 88.9854 98.4229C89.4912 98.4229 89.9082 98.2246 90.2363 97.8281C90.569 97.4316 90.7354 97.0033 90.7354 96.543C90.7354 96.2148 90.6419 95.9596 90.4551 95.7773C90.2682 95.5951 90.0381 95.5039 89.7646 95.5039C89.5094 95.5039 89.1243 95.5837 88.6094 95.7432C88.2949 95.8389 88.0192 95.9209 87.7822 95.9893Z" fill="white"/>
<path d="M106.383 89.4883L107.101 88.8115H107.559L106.82 92.5098H106.383C106.378 91.7487 106.312 91.1517 106.185 90.7188C106.011 90.1126 105.731 89.6478 105.344 89.3242C104.961 88.9961 104.492 88.832 103.936 88.832C103.243 88.832 102.584 89.1055 101.96 89.6523C101.336 90.1992 100.821 91.0719 100.415 92.2705C100.073 93.3005 99.9023 94.3053 99.9023 95.2852C99.9023 96.2695 100.148 97.026 100.641 97.5547C101.133 98.0833 101.794 98.3477 102.623 98.3477C103.343 98.3477 103.997 98.1243 104.585 97.6777C105.173 97.2266 105.649 96.543 106.014 95.627L106.451 95.7979C106.082 96.7503 105.613 97.4681 105.043 97.9512C104.296 98.5846 103.396 98.9014 102.343 98.9014C101.172 98.9014 100.201 98.514 99.4307 97.7393C98.6605 96.96 98.2754 95.9779 98.2754 94.793C98.2754 93.681 98.5534 92.5986 99.1094 91.5459C99.6654 90.4932 100.36 89.6979 101.194 89.1602C102.028 88.6178 102.917 88.3467 103.86 88.3467C104.316 88.3467 104.74 88.4333 105.132 88.6064C105.524 88.7751 105.941 89.069 106.383 89.4883Z" fill="white"/>
<path d="M109.678 88.5928H119.85L119.761 89.1055H119.214C118.726 89.1055 118.425 89.3174 118.312 89.7412L116.261 97.418C116.215 97.582 116.192 97.7028 116.192 97.7803C116.192 98.0537 116.459 98.1904 116.992 98.1904H117.491L117.375 98.7031H113.171L113.301 98.1904H113.8C113.991 98.1904 114.178 98.1562 114.36 98.0879C114.547 98.0195 114.679 97.8372 114.757 97.541L116.992 89.2285H112.542L110.313 97.4795C110.272 97.639 110.252 97.7438 110.252 97.7939C110.252 98.0583 110.53 98.1904 111.086 98.1904H111.79L111.674 98.7031H107.415L107.552 98.1904H107.88C108.39 98.1904 108.689 98.0286 108.775 97.7051L110.895 89.8438C110.936 89.6934 110.956 89.584 110.956 89.5156C110.956 89.2422 110.696 89.1055 110.177 89.1055H109.562L109.678 88.5928Z" fill="white"/>
<path d="M127.068 88.5928H127.711C127.538 88.9893 127.346 89.2992 127.137 89.5225C126.932 89.7458 126.681 89.9235 126.385 90.0557C126.089 90.1833 125.808 90.2607 125.544 90.2881C125.284 90.3154 124.783 90.3291 124.04 90.3291C123.516 90.3291 123.092 90.3952 122.769 90.5273C122.445 90.6549 122.151 90.8623 121.887 91.1494C121.627 91.432 121.433 91.7168 121.306 92.0039C121.183 92.291 120.959 92.8652 120.636 93.7266C121.424 92.6465 122.329 92.1064 123.35 92.1064C124.115 92.1064 124.74 92.373 125.223 92.9062C125.706 93.4395 125.947 94.098 125.947 94.8818C125.947 95.8981 125.594 96.8232 124.888 97.6572C124.186 98.4867 123.336 98.9014 122.338 98.9014C121.559 98.9014 120.939 98.6348 120.479 98.1016C120.023 97.5684 119.795 96.821 119.795 95.8594C119.795 94.6745 120.185 93.248 120.964 91.5801C121.748 89.9076 123.069 89.0713 124.929 89.0713L126.077 89.085C126.601 89.085 126.932 88.9209 127.068 88.5928ZM124.744 94.2598C124.744 93.7676 124.628 93.3643 124.396 93.0498C124.163 92.7308 123.83 92.5713 123.397 92.5713C122.655 92.5713 122.06 93.0384 121.613 93.9727C121.167 94.9069 120.943 95.8161 120.943 96.7002C120.943 97.2152 121.057 97.6344 121.285 97.958C121.518 98.2816 121.848 98.4434 122.276 98.4434C123.051 98.4434 123.655 97.9557 124.088 96.9805C124.525 96.0007 124.744 95.0938 124.744 94.2598Z" fill="white"/>
<path d="M134.123 92.1816L132.763 96.3994C132.617 96.8551 132.544 97.2266 132.544 97.5137C132.544 97.7233 132.601 97.8896 132.715 98.0127C132.833 98.1312 132.991 98.1904 133.187 98.1904C133.583 98.1904 134.075 97.8942 134.663 97.3018C135.256 96.7048 135.741 95.8298 136.119 94.6768L136.892 92.3047H137.999L136.365 97.3633C136.292 97.5866 136.256 97.778 136.256 97.9375C136.256 98.056 136.281 98.1449 136.331 98.2041C136.386 98.2633 136.463 98.293 136.563 98.293C136.974 98.293 137.495 97.7005 138.129 96.5156L138.519 96.6523C138.163 97.4408 137.776 98.0127 137.356 98.3682C136.937 98.7236 136.538 98.9014 136.16 98.9014C135.887 98.9014 135.67 98.8193 135.511 98.6553C135.351 98.4867 135.271 98.2565 135.271 97.9648C135.271 97.7233 135.324 97.3838 135.429 96.9463C134.854 97.6937 134.351 98.2064 133.918 98.4844C133.485 98.7624 133.075 98.9014 132.688 98.9014C132.291 98.9014 131.977 98.7897 131.744 98.5664C131.512 98.3385 131.396 98.0423 131.396 97.6777C131.396 97.377 131.493 96.9258 131.689 96.3242L132.612 93.4395C132.635 93.3665 132.646 93.2959 132.646 93.2275C132.646 93.1045 132.592 93.0065 132.482 92.9336C132.337 92.8424 132.127 92.7969 131.854 92.7969H131.478L131.614 92.3047L134.123 92.1816Z" fill="white"/>
<path d="M152.108 97.4521C152.086 97.5387 152.074 97.6003 152.074 97.6367C152.074 97.8464 152.124 97.9922 152.225 98.0742C152.325 98.1517 152.523 98.1904 152.819 98.1904H153.667L153.551 98.7031H148.889L149.012 98.1904H149.675C150.017 98.1904 150.249 98.1357 150.372 98.0264C150.5 97.9124 150.6 97.7142 150.673 97.4316L152.86 89.1055H150.912C150.356 89.1055 149.957 89.1715 149.716 89.3037C149.479 89.4313 149.299 89.6318 149.176 89.9053C149.053 90.1742 148.697 91.154 148.109 92.8447C147.243 95.3285 146.512 96.96 145.915 97.7393C145.318 98.514 144.621 98.9014 143.823 98.9014C143.463 98.9014 143.169 98.8102 142.941 98.6279C142.714 98.4411 142.6 98.1836 142.6 97.8555C142.6 97.541 142.695 97.2699 142.887 97.042C143.083 96.8141 143.331 96.7002 143.632 96.7002C144.11 96.7002 144.397 96.9372 144.493 97.4111C144.525 97.5843 144.564 97.7005 144.609 97.7598C144.655 97.8145 144.73 97.8418 144.835 97.8418C145.405 97.8418 146.104 96.723 146.934 94.4854C147.768 92.2477 148.185 90.7324 148.185 89.9395C148.185 89.7116 148.121 89.5156 147.993 89.3516C147.866 89.1875 147.562 89.1055 147.084 89.1055H146.824L146.968 88.5928H155.779L155.677 89.1055H155.048C154.779 89.1055 154.583 89.1465 154.46 89.2285C154.337 89.3105 154.228 89.5293 154.132 89.8848L152.108 97.4521Z" fill="white"/>
<path d="M161.774 88.333C162.891 88.333 163.809 88.7067 164.529 89.4541C165.254 90.2015 165.616 91.1745 165.616 92.373C165.616 93.5352 165.338 94.6221 164.782 95.6338C164.231 96.641 163.483 97.4385 162.54 98.0264C161.597 98.6097 160.631 98.9014 159.642 98.9014C158.552 98.9014 157.648 98.5277 156.928 97.7803C156.208 97.0283 155.848 96.0599 155.848 94.875C155.848 93.7266 156.128 92.6374 156.688 91.6074C157.249 90.5775 157.99 89.7754 158.91 89.2012C159.831 88.6224 160.785 88.333 161.774 88.333ZM161.822 88.8115C161.28 88.8115 160.772 88.9391 160.298 89.1943C159.824 89.445 159.368 89.8802 158.931 90.5C158.493 91.1152 158.131 91.9059 157.844 92.8721C157.561 93.8382 157.42 94.7816 157.42 95.7021C157.42 96.5999 157.618 97.279 158.015 97.7393C158.416 98.195 158.969 98.4229 159.676 98.4229C160.41 98.4229 161.082 98.1836 161.692 97.7051C162.308 97.2266 162.836 96.429 163.278 95.3125C163.812 93.9772 164.078 92.6989 164.078 91.4775C164.078 90.6208 163.873 89.9622 163.463 89.502C163.053 89.0417 162.506 88.8115 161.822 88.8115Z" fill="white"/>
<defs>
<filter id="filter0_d_2_17" x="0" y="0" width="251" height="150" filterUnits="userSpaceOnUse" color-interpolation-filters="sRGB">
<feFlood flood-opacity="0" result="BackgroundImageFix"/>
<feColorMatrix in="SourceAlpha" type="matrix" values="0 0 0 0 0 0 0 0 0 0 0 0 0 0 0 0 0 0 127 0" result="hardAlpha"/>
<feOffset dy="4"/>
<feGaussianBlur stdDeviation="2"/>
<feComposite in2="hardAlpha" operator="out"/>
<feColorMatrix type="matrix" values="0 0 0 0 0 0 0 0 0 0 0 0 0 0 0 0 0 0 0.25 0"/>
<feBlend mode="normal" in2="BackgroundImageFix" result="effect1_dropShadow_2_17"/>
<feBlend mode="normal" in="SourceGraphic" in2="effect1_dropShadow_2_17" result="shape"/>
</filter>
</defs>
</svg>
